<svg xmlns="http://www.w3.org/2000/svg" width="188" height="188" viewBox="0 0 188 188" fill="none"><circle cx="94" cy="94" r="94" fill="#2B8FC0"></circle><path d="M39.6845 98.0668C50.781 104.097 63.0833 107.585 75.6983 108.278C90.5922 108.404 105.321 105.153 118.774 98.7718C126.957 94.1165 134.593 88.5633 141.542 82.2155C131.992 92.8304 119.871 100.819 106.341 105.416C106.341 105.416 83.252 113.704 60.9333 108.748C60.9333 108.748 39.3421 102.767 37.2451 101.036C35.148 99.3058 35.5332 96.0587 39.6845 98.0668ZM153.974 75.0376C153.439 70.0173 155.772 57.9473 146.078 67.6887C136.385 77.4302 128.467 85.0781 115.885 89.9275C108.971 92.4484 101.893 94.4969 94.7002 96.0587L88.1308 100.972L92.7743 96.4859C86.0518 98.1602 79.1377 98.9431 72.2103 98.8145C69.5496 98.4558 66.8415 98.7357 64.3109 99.6311C61.7802 100.527 59.4999 102.012 57.6593 103.963C63.5364 105.743 69.608 106.804 75.7411 107.125H78.2875C92.1191 106.817 105.731 103.607 118.239 97.7036C126.536 93.0923 134.344 87.6525 141.542 81.4678C146.849 76.5116 141.734 82.6428 140.386 84.245C131.19 94.3729 119.572 102.009 106.619 106.441C96.7751 109.637 86.4987 111.308 76.1476 111.397C70.9333 111.429 65.7312 110.891 60.6337 109.795C60.4197 109.795 58.7506 109.325 56.354 108.663C57.4881 111.568 61.3398 119.601 69.8351 122.25C80.2562 125.475 91.9398 123.489 96.9685 122.25C90.333 122.185 83.8506 120.252 78.2661 116.674C78.2661 116.674 94.9784 121.886 105.421 119.729C116.507 117.224 126.885 112.259 135.785 105.202C135.785 105.202 122.668 107.701 117.811 105.202C117.811 105.202 135.593 104.668 141.092 100.353C146.592 96.0373 154.509 80.0579 153.974 75.0376Z" fill="white"></path></svg>