<svg xmlns="http://www.w3.org/2000/svg" id="Layer_2" data-name="Layer 2" viewBox="0 0 188 188"><defs><style>      .cls-1 {        fill: none;        stroke: #fff;        stroke-linecap: round;        stroke-linejoin: round;        stroke-width: 3px;      }      .cls-2 {        fill: #2b8fc0;      }      .cls-2, .cls-3 {        stroke-width: 0px;      }      .cls-3 {        fill: #fff;      }    </style></defs><g id="Layer_1-2" data-name="Layer 1"><g><circle class="cls-2" cx="94" cy="94" r="94"></circle><g><g><path class="cls-3" d="M140.1,63.75c-8.49-10.35-26.47-22.42-46.1-22.42s-37.67,12.16-46.1,22.42c-.83,1.01-.83,2.47,0,3.49,8.69,10.6,26.72,22.42,46.1,22.42s37.97-12.52,46.1-22.42c.83-1.01.83-2.47,0-3.49ZM112.67,65.49c0,10.29-8.37,18.67-18.67,18.67s-18.67-8.38-18.67-18.67,8.37-18.67,18.67-18.67c10.29,0,18.67,8.38,18.67,18.67h0ZM53.74,65.49c3.09-3.21,10.55-10.15,21.02-14.61-6.57,8.63-6.57,20.57,0,29.21-7.96-3.37-15.36-8.7-21.02-14.6ZM113.24,80.1c6.57-8.63,6.57-20.57,0-29.21,7.96,3.37,15.36,8.7,21.02,14.6-3.09,3.22-10.55,10.15-21.02,14.61Z"></path><path class="cls-3" d="M84.66,65.49c0,5.15,4.19,9.34,9.34,9.34s9.34-4.19,9.34-9.34-4.19-9.34-9.34-9.34-9.34,4.19-9.34,9.34ZM97.85,65.49c0,2.12-1.73,3.85-3.85,3.85s-3.85-1.73-3.85-3.85,1.73-3.85,3.85-3.85,3.85,1.73,3.85,3.85Z"></path></g><path class="cls-3" d="M122.91,146.67h-2c0-14.84-12.07-26.91-26.91-26.91s-26.91,12.07-26.91,26.91h-2c0-15.94,12.97-28.91,28.91-28.91s28.91,12.97,28.91,28.91Z"></path><line class="cls-1" x1="47.28" y1="74.83" x2="75.33" y2="124.62"></line><line class="cls-1" x1="140.72" y1="74.83" x2="112.67" y2="124.62"></line><line class="cls-1" x1="111.76" y1="89.66" x2="103.77" y2="119.46"></line><line class="cls-1" x1="76.24" y1="89.66" x2="84.23" y2="119.46"></line><line class="cls-1" x1="94" y1="117.76" x2="94" y2="93.25"></line></g></g></g></svg>