<svg xmlns="http://www.w3.org/2000/svg" id="Layer_2" data-name="Layer 2" viewBox="0 0 188 188"><defs><style>      .cls-1 {        fill: #2b8fc0;      }      .cls-1, .cls-2 {        stroke-width: 0px;      }      .cls-2 {        fill: #fff;      }    </style></defs><g id="Layer_1-2" data-name="Layer 1"><g><circle class="cls-1" cx="94" cy="94" r="94"></circle><g><path class="cls-2" d="M93.28,134.36h-.06c-8.29-.04-15.3-8.78-20.86-25.99-4.16-12.89-9.05-19.85-14.13-20.12-.11,0-.22,0-.32,0-7.79,0-16.01,14.64-18.55,20.37-.55,1.24-2,1.8-3.23,1.25-1.24-.55-1.8-1.99-1.25-3.23,1.08-2.45,10.98-23.96,23.6-23.27,7.5.39,13.57,8.08,18.54,23.51,4.76,14.76,10.37,22.57,16.22,22.6h.03c8.17,0,16.69-14.97,19.25-22.62,2.67-8,10.43-23.14,20.7-23.17h.04c7.76,0,14.28,8.07,19.93,24.67.44,1.28-.25,2.67-1.53,3.11-1.28.44-2.67-.25-3.11-1.53-4.7-13.77-10.13-21.35-15.3-21.35h-.02c-6.53.02-13.33,11.61-16.07,19.82-2.83,8.48-12.39,25.97-23.89,25.97Z"></path><g><rect class="cls-2" x="73.55" y="77.54" width="45.45" height="3.1"></rect><polygon class="cls-2" points="74.91 83.72 66.89 79.09 74.91 74.46 74.91 83.72"></polygon><polygon class="cls-2" points="117.65 83.72 125.67 79.09 117.65 74.46 117.65 83.72"></polygon></g><g><polygon class="cls-2" points="62.55 53.64 64.37 59.26 70.28 59.26 65.5 62.74 67.33 68.36 62.55 64.88 57.77 68.36 59.59 62.74 54.81 59.26 60.72 59.26 62.55 53.64"></polygon><polygon class="cls-2" points="79.41 53.64 81.24 59.26 87.15 59.26 82.37 62.74 84.19 68.36 79.41 64.88 74.63 68.36 76.46 62.74 71.68 59.26 77.59 59.26 79.41 53.64"></polygon><polygon class="cls-2" points="113.15 53.64 114.97 59.26 120.88 59.26 116.1 62.74 117.93 68.36 113.15 64.88 108.36 68.36 110.19 62.74 105.41 59.26 111.32 59.26 113.15 53.64"></polygon><polygon class="cls-2" points="96.28 54.42 98.11 60.04 104.02 60.04 99.23 63.51 101.06 69.13 96.28 65.66 91.5 69.13 93.32 63.51 88.54 60.04 94.45 60.04 96.28 54.42"></polygon><polygon class="cls-2" points="130.01 53.64 131.84 59.26 137.75 59.26 132.97 62.74 134.79 68.36 130.01 64.88 125.23 68.36 127.06 62.74 122.28 59.26 128.19 59.26 130.01 53.64"></polygon></g></g></g></g></svg>